<svg viewBox="0 0 24 24" fill="none" xmlns="http://www.w3.org/2000/svg">
   <path
      d="m13.868 16.698-1.818-1.803c-.835-.829-1.254-1.244-1.734-1.398a2.117 2.117 0 0 0-1.302 0c-.48.154-.899.57-1.734 1.397l-4.234 4.264m10.822-2.46.361-.359c.853-.847 1.28-1.27 1.77-1.424a2.117 2.117 0 0 1 1.32.016c.486.165.902.598 1.735 1.464l.885.898m-6.07-.595 4.186 4.26m0 0c-.37.04-.846.04-1.503.04H6.39c-1.186 0-1.779 0-2.232-.231a2.117 2.117 0 0 1-.925-.925 1.978 1.978 0 0 1-.186-.684m15.008 1.8c.296-.032.527-.088.728-.191a2.117 2.117 0 0 0 .925-.925c.231-.453.231-1.046.231-2.232v-4.022M10.412 4.06H6.39c-1.186 0-1.779 0-2.232.23a2.117 2.117 0 0 0-.925.926c-.23.453-.23 1.046-.23 2.231V17.61c0 .685 0 1.172.044 1.548m14.775-9.804V6.178m0 0V3.002m0 3.176h3.176m-3.176 0h-3.176"
      stroke-width="1.5" />
</svg>