<svg viewBox="0 0 24 24" fill="none" xmlns="http://www.w3.org/2000/svg">
    <path
        d="M2.566 11.977a.91.898 0 0 1 1.194.472l-.836.354.837-.354c0-.001 0 0 0 0l.002.008.02.04a10.447 10.447 0 0 0 .45.828c.33.55.832 1.28 1.517 2.008a10.88 10.74 0 0 0 .537.532c1.347 1.246 3.23 2.323 5.73 2.323 1.1 0 2.072-.207 2.928-.54 1.116-.433 2.05-1.086 2.815-1.794a11.87 11.716 0 0 0 2.486-3.342l.024-.053.005-.01a.91.898 0 0 1 1.67.708l-.835-.354.837.354-.003.004-.003.007-.01.024-.037.078a12.771 12.606 0 0 1-.674 1.21 13.974 13.793 0 0 1-1.555 2.025l.724.715a.91.898 0 0 1-1.285 1.27l-.764-.754a10.739 10.6 0 0 1-1.725 1.127l.71 1.08a.91.898 0 1 1-1.523.978l-.897-1.358a9.794 9.794 0 0 1-1.978.38v1.387a.91.898 0 0 1-1.82 0v-1.386a9.803 9.803 0 0 1-1.979-.382l-.895 1.36a.91.898 0 0 1-1.524-.979l.71-1.08a10.704 10.704 0 0 1-1.724-1.128l-.764.754a.91.898 0 0 1-1.286-1.268l.725-.716a14.009 13.828 0 0 1-1.7-2.261 12.237 12.078 0 0 1-.538-.994 4.927 4.863 0 0 1-.03-.065l-.01-.018v-.007l-.002-.001v-.001c-.003 0-.003-.001.834-.355l-.836.355a.91.898 0 0 1 .478-1.18z"
    />
</svg>