<svg xmlns="http://www.w3.org/2000/svg" viewBox="0 0 24 24" fill="none">
    <path
        d="m9.602 14.374 4.3-4.3m-3.859 4.986 1.418 2.843c.771 1.549 1.157 2.323 1.654 2.541a1.5 1.5 0 0 0 1.339-.066c.473-.266.78-1.074 1.397-2.69l3.957-10.382c.602-1.58.904-2.371.732-2.881a1.5 1.5 0 0 0-.938-.942c-.51-.173-1.301.126-2.884.723L6.298 8.14c-1.619.612-2.429.917-2.697 1.39a1.5 1.5 0 0 0-.07 1.338c.218.498.992.886 2.54 1.663l2.9 1.455c.266.133.398.2.513.288.102.08.194.17.272.273.089.115.155.248.287.514z"
        stroke-width="1.5" stroke-linecap="round" stroke-linejoin="round"
    />
</svg>