<svg viewBox="0 0 24 24" fill="none" xmlns="http://www.w3.org/2000/svg">
   <path
      d="M17.702 2.994a3.304 3.304 0 1 1-3.183 4.214h-.12a1.516 1.516 0 0 0-1.516 1.515v1.304l1.91 1.91a.585.585 0 0 1 0 .848l-.395.424a.585.585 0 0 1-.849 0l-.636-.636V15.3a3.289 3.289 0 0 1-3.183 3.304h-.242a3.307 3.307 0 1 1-3.183-4.213 3.334 3.334 0 0 1 3.183 2.394h.12a1.516 1.516 0 0 0 1.516-1.515v-2.637l-.545.575a.585.585 0 0 1-.849 0l-.424-.424a.585.585 0 0 1 0-.849l1.788-1.788V8.723a3.289 3.289 0 0 1 3.183-3.304h.242a3.283 3.283 0 0 1 3.183-2.425zM6.305 16.21a1.516 1.516 0 0 0-1.516 1.516 1.516 1.516 0 0 0 3.031 0 1.516 1.516 0 0 0-1.515-1.516zM17.702 4.783a1.516 1.516 0 0 0-1.515 1.515 1.516 1.516 0 1 0 3.03 0 1.516 1.516 0 0 0-1.515-1.515z"
      stroke-width="1.5" />
</svg>